<?xml version="1.0" encoding="UTF-8" standalone="no"?>
<!-- Created with Inkscape (http://www.inkscape.org/) -->

<svg
   width="180.62222mm"
   height="180.62222mm"
   viewBox="0 0 180.62222 180.62222"
   version="1.1"
   id="svg1"
   xml:space="preserve"
   inkscape:version="1.3.2 (091e20e, 2023-11-25)"
   sodipodi:docname="logo.svg"
   xmlns:inkscape="http://www.inkscape.org/namespaces/inkscape"
   xmlns:sodipodi="http://sodipodi.sourceforge.net/DTD/sodipodi-0.dtd"
   xmlns="http://www.w3.org/2000/svg"
   xmlns:svg="http://www.w3.org/2000/svg"><sodipodi:namedview
     id="namedview1"
     pagecolor="#ffffff"
     bordercolor="#000000"
     borderopacity="0.25"
     inkscape:showpageshadow="2"
     inkscape:pageopacity="0.0"
     inkscape:pagecheckerboard="0"
     inkscape:deskcolor="#d1d1d1"
     inkscape:document-units="mm"
     inkscape:zoom="0.91358539"
     inkscape:cx="339.86971"
     inkscape:cy="303.74829"
     inkscape:window-width="1728"
     inkscape:window-height="962"
     inkscape:window-x="0"
     inkscape:window-y="38"
     inkscape:window-maximized="1"
     inkscape:current-layer="layer1" /><defs
     id="defs1" /><g
     inkscape:label="Layer 1"
     inkscape:groupmode="layer"
     id="layer1"
     transform="translate(-14.771516,-58.188889)"
     style="display:inline"><g
       id="g1"><path
         style="fill:#cae4f5"
         d="m 123.76839,93.73125 c -5.8483,-6.91752 -9.00547,-14.714642 -8.74925,-21.607639 0.15233,-4.097869 1.061,-6.119148 3.35533,-7.463717 2.8753,-1.685035 6.79178,-1.081469 11.11574,1.713041 2.22057,1.435114 7.10992,5.902867 7.73964,7.072255 0.25026,0.46475 0.0275,1.091545 -0.90701,2.552476 -3.58126,5.598412 -5.49842,11.091764 -5.75804,16.498862 l -0.18209,3.792361 h -2.22601 -2.226 z"
         id="path7" /><path
         style="fill:#bcdff5"
         d="m 140.59154,102.13971 c -3.11052,-1.14437 -4.57571,-3.758972 -4.56043,-8.13799 0.0251,-7.181597 4.27831,-15.759739 10.94922,-22.082883 3.58347,-3.396653 6.61963,-5.318076 10.07294,-6.374618 5.92532,-1.812855 9.72587,0.44741 10.4179,6.195738 0.28125,2.336206 1.06625,3.735043 2.09603,3.735043 0.4184,0 0.47786,0.325218 0.2986,1.633102 -0.40221,2.934464 -0.94535,4.294156 -1.64249,4.111849 -1.10241,-0.288286 -2.08442,0.574006 -3.21516,2.823193 -3.57573,7.112552 -8.75866,12.886637 -14.42017,16.064896 -3.85744,2.16549 -7.57759,2.92157 -9.99644,2.03167 z"
         id="path6" /><path
         style="fill:#fde267"
         d="m 38.319433,222.34445 -18.25625,-10.43194 0.0034,-21.03473 0.0034,-21.03472 5.4877,-3.12435 c 5.652058,-3.21792 6.386427,-3.91374 5.953024,-5.64056 -0.172255,-0.68632 0.296344,-1.05759 3.959584,-3.13723 4.151115,-2.3566 4.155644,-2.35814 4.891843,-1.66652 0.405285,0.38075 1.087929,0.69227 1.516987,0.69227 0.429058,0 3.978556,-1.83204 7.887773,-4.0712 4.287946,-2.4561 7.324129,-3.98814 7.653303,-3.86183 0.300099,0.11516 8.608167,4.81695 18.462372,10.44843 l 17.916737,10.23904 -0.09094,21.21393 -0.09094,21.21393 -17.991666,10.31156 c -9.895417,5.67137 -18.229792,10.31254 -18.520834,10.31371 -0.291041,0.001 -8.744479,-4.69223 -18.785416,-10.42979 z M 79.605996,212.3091 c 3.437633,-1.9643 6.528055,-3.81453 6.867603,-4.11162 0.553368,-0.48417 0.617362,-1.35585 0.617362,-8.40925 0,-7.64078 -0.0224,-7.88995 -0.772076,-8.58838 -0.989218,-0.92159 -2.409337,-0.9169 -3.590072,0.0119 l -0.929519,0.73116 -0.0026,6.41259 -0.0026,6.41259 -4.996639,2.82222 c -6.203655,3.50397 -6.992585,4.13182 -6.992585,5.56487 0,1.41738 1.220245,2.72541 2.542502,2.72541 0.63136,0 3.345375,-1.33537 7.258645,-3.57146 z m 27.721654,-53.01006 c -4.69461,-2.52862 -7.17266,-4.36694 -10.711689,-7.94636 -5.4157,-5.47752 -8.002077,-10.77626 -8.357838,-17.1228 -0.656919,-11.719 8.045136,-22.73066 22.450097,-28.40856 l 1.74377,-0.68733 1.05851,1.33648 c 3.21019,4.05319 6.55252,11.20418 8.02957,17.17943 0.80786,3.26809 0.95409,4.61698 0.95389,8.79871 -3.7e-4,7.31523 -1.4727,12.8408 -5.20364,19.529 -1.76856,3.17035 -5.88305,8.65817 -6.58217,8.77913 -0.28063,0.0486 -1.80186,-0.60741 -3.3805,-1.4577 z m 5.5312,-25.61571 c 0.68932,0 1.74878,-1.60442 1.74878,-2.64832 0,-5.02217 -4.67793,-9.6989 -9.70139,-9.6989 -4.82942,0 -9.378488,4.36966 -9.489275,9.11502 -0.04292,1.83822 0.969561,2.87943 2.799973,2.87943 1.438201,0 2.442172,-1.13848 2.760722,-3.13059 0.31425,-1.96519 1.86903,-3.21941 3.99092,-3.21941 1.34436,0 1.78465,0.18893 2.79516,1.19944 0.79757,0.79757 1.20119,1.53631 1.20464,2.20486 0.0101,1.95664 1.79945,3.95354 3.11046,3.47129 0.2584,-0.0951 0.60941,-0.17282 0.78001,-0.17282 z m 47.75189,14.64028 c 0.14795,-0.38805 0.60627,-2.1343 1.01849,-3.88055 0.63559,-2.69243 0.75009,-4.27421 0.75335,-10.40695 0.004,-6.69982 -0.0692,-7.54343 -0.98928,-11.46528 -0.89194,-3.80204 -2.62741,-8.97491 -4.23121,-12.6118 -0.32086,-0.72761 -0.43721,-1.32292 -0.25856,-1.32292 0.42211,0 3.24728,3.12784 5.25757,5.82083 1.94828,2.60993 4.08991,7.00622 4.89784,10.05417 0.81469,3.07349 0.79731,9.24048 -0.0347,12.32682 -1.07025,3.9699 -3.14838,7.95981 -5.79853,11.1329 -0.58508,0.70054 -0.79297,0.8198 -0.61493,0.35278 z"
         id="path5" /><path
         style="fill:#fdd82e"
         d="m 78.336246,154.56235 -18.385483,-10.47207 -0.0076,-21.16667 -0.0076,-21.16667 18.357446,-10.48027 18.357446,-10.480273 9.243205,5.261413 c 8.4707,4.821688 9.32817,5.397232 10.2598,6.886524 0.55912,0.89381 1.55721,2.272198 2.21798,3.063083 l 1.20139,1.437972 -3.80548,0.992575 c -8.45251,2.204646 -15.848346,5.973926 -21.476823,10.945636 -5.514352,4.8709 -8.68864,9.69439 -10.582877,16.08122 -0.77484,2.61253 -0.921384,3.80053 -0.926759,7.51296 -0.0055,3.76833 0.131041,4.87152 0.938444,7.58472 1.08758,3.6547 3.340631,8.09253 5.59575,11.02192 2.062313,2.67894 6.209908,6.59041 9.25827,8.7312 1.34882,0.94724 2.530455,1.78377 2.625845,1.85894 0.1829,0.14414 0.15471,0.16322 -2.678199,1.81243 l -1.7992,1.04743 z m 75.320974,8.28044 c 0.13475,-0.22444 0.74851,-1.20182 1.36389,-2.17196 1.51968,-2.39573 3.03321,-5.4458 4.47288,-9.01376 0.66149,-1.63937 1.87324,-3.85381 2.69278,-4.92096 1.86506,-2.42856 4.0443,-6.87476 4.84144,-9.87778 0.82844,-3.12095 0.84278,-9.28625 0.0287,-12.34722 -1.32273,-4.97353 -4.39006,-10.10641 -8.6135,-14.41382 -2.05593,-2.0968 -3.5183,-4.14905 -3.19025,-4.47709 0.25196,-0.25197 5.75639,2.32716 8.49234,3.97912 8.04109,4.85519 13.35217,10.92593 15.66919,17.9104 0.80137,2.41568 0.93737,3.43204 0.94414,7.05556 0.007,3.67822 -0.11437,4.58474 -0.92458,6.91316 -3.02988,8.70745 -10.5384,15.81405 -21.2239,20.08782 -3.89607,1.55827 -4.88953,1.8368 -4.55314,1.27653 z"
         id="path4" /><path
         style="fill:#9b9b9b"
         d="m 178.62688,191.00972 c 4e-5,-12.80583 0.0441,-17.99335 0.098,-11.52781 0.0538,6.46554 0.0538,16.94304 -7e-5,23.28333 -0.0539,6.3403 -0.0979,1.05032 -0.0979,-11.75552 z m -84.833235,-0.10571 0.176295,-21.41373 0.09109,21.14622 c 0.0501,11.63043 -0.02923,21.26661 -0.176296,21.41373 -0.147062,0.14713 -0.188053,-9.36867 -0.09109,-21.14622 z m 32.279265,-25.66579 c -3.42582,-0.51744 -9.70139,-1.92599 -9.70139,-2.17748 0,-0.0848 0.9316,-1.45098 2.07022,-3.03594 5.98854,-8.33601 8.98394,-16.40941 9.44603,-25.45952 0.47654,-9.33321 -2.32116,-19.30453 -7.91845,-28.22222 -1.18375,-1.88597 -1.63548,-2.89785 -1.36169,-3.05019 0.67893,-0.37775 6.89695,-1.32573 10.31831,-1.5731 l 3.20582,-0.23178 0.73822,1.19281 c 2.48808,4.02022 7.67252,5.97751 12.95848,4.89225 3.77262,-0.77456 3.63133,-0.83276 5.14952,2.12139 6.50947,12.6664 8.02765,26.49634 4.19112,38.17948 -1.29921,3.95641 -4.4774,9.87082 -7.36954,13.71421 l -2.81397,3.73953 -2.40079,0.22672 c -3.94591,0.37263 -13.11382,0.19709 -16.51189,-0.31616 z m 50.09444,-8.97711 c 0.95555,-0.97014 1.81674,-1.76389 1.91375,-1.76389 0.097,0 -0.60542,0.79375 -1.56097,1.76389 -0.95555,0.97014 -1.81674,1.76389 -1.91376,1.76389 -0.097,0 0.60543,-0.79375 1.56098,-1.76389 z m -79.744377,-4.6743 -1.394512,-1.49931 1.499305,1.39451 c 1.394339,1.29688 1.661416,1.6041 1.394512,1.6041 -0.05764,0 -0.732324,-0.67469 -1.499305,-1.4993 z M 54.448745,121.68889 c 0,-12.32077 0.04423,-17.36108 0.09829,-11.2007 0.05406,6.16039 0.05406,16.24101 0,22.40139 -0.05406,6.16039 -0.09829,1.12007 -0.09829,-11.20069 z m 131.155725,16.93333 c 0.0875,-0.32573 0.60645,-0.54826 1.34977,-0.57885 1.10622,-0.0455 1.11884,-0.0354 0.15037,0.12003 -0.58146,0.0933 -1.18885,0.35382 -1.34978,0.57885 -0.19758,0.27629 -0.2464,0.23732 -0.15036,-0.12003 z m 0.88163,-5.89341 c 0.43656,-0.0841 1.15094,-0.0841 1.5875,0 0.43656,0.0841 0.0794,0.15288 -0.79375,0.15288 -0.87313,0 -1.23031,-0.0688 -0.79375,-0.15288 z m -10.68813,-20.65312 -1.39451,-1.4993 1.49931,1.39451 c 0.82461,0.76698 1.4993,1.44167 1.4993,1.49931 0,0.2669 -0.30721,-1.8e-4 -1.6041,-1.39452 z M 160.99791,98.758333 c 0.75785,-0.776111 1.45728,-1.411111 1.5543,-1.411111 0.097,0 -0.44367,0.635 -1.20153,1.411111 -0.75785,0.776111 -1.45729,1.411107 -1.5543,1.411107 -0.097,0 0.44367,-0.634996 1.20153,-1.411107 z M 114.69659,74.240277 c 0.004,-0.776111 0.0762,-1.052072 0.16054,-0.613248 0.0844,0.438825 0.0812,1.073825 -0.007,1.411112 -0.0883,0.337286 -0.15733,-0.02175 -0.15342,-0.797864 z M 146.18124,72.3 c 1.15202,-1.164167 2.17395,-2.116667 2.27097,-2.116667 0.097,0 -0.76617,0.9525 -1.91819,2.116667 -1.15202,1.164166 -2.17396,2.116666 -2.27097,2.116666 -0.097,0 0.76617,-0.9525 1.91819,-2.116666 z m 26.7308,0 c 0,-0.873125 0.0688,-1.230313 0.15289,-0.79375 0.0841,0.436562 0.0841,1.150937 0,1.5875 -0.0841,0.436562 -0.15289,0.07937 -0.15289,-0.79375 z M 160.03188,59.350494 c 0.43882,-0.08438 1.07382,-0.08118 1.41111,0.0071 0.33729,0.0883 -0.0217,0.157338 -0.79786,0.153422 -0.77611,-0.0039 -1.05208,-0.07616 -0.61325,-0.160541 z"
         id="path3" /><path
         style="fill:#f5c800"
         d="m 117.95902,222.63576 -18.344448,-10.47513 -0.09094,-21.21654 -0.09094,-21.21655 3.741978,-2.1471 c 2.05809,-1.18091 3.86902,-2.14711 4.02428,-2.14711 0.15527,0 1.73911,0.56262 3.51964,1.25026 7.62275,2.94391 13.60218,4.06245 22.93903,4.29109 8.02063,0.1964 12.5305,-0.24732 18.87361,-1.85698 2.76363,-0.70132 8.68389,-2.851 11.64167,-4.22716 0.19402,-0.0903 2.25777,0.92634 4.58611,2.25916 l 4.23333,2.42329 0.0734,21.3017 0.0734,21.3017 -8.99512,5.09604 c -4.94731,2.80283 -9.15838,5.29277 -9.35792,5.53321 -0.19955,0.24044 -0.31229,0.96347 -0.25055,1.60673 0.11137,1.1602 0.0741,1.19125 -4.65023,3.87497 -4.01544,2.28101 -4.84551,2.63342 -5.29167,2.24659 -1.364,-1.18264 -1.85104,-1.06925 -6.35,1.47828 l -1.94028,1.09868 z m 40.92222,-10.23223 c 3.29847,-1.86721 6.35441,-3.74652 6.79097,-4.17625 0.77293,-0.76083 0.79375,-0.97479 0.79375,-8.15811 0,-6.92873 -0.0444,-7.43326 -0.73116,-8.30632 -0.83343,-1.05953 -2.56158,-1.26021 -3.69933,-0.42958 -0.62395,0.45553 -0.70046,1.08877 -0.86118,7.12814 l -0.17638,6.6282 -5.56955,3.1913 c -3.06325,1.75522 -5.71988,3.42912 -5.90363,3.71978 -1.10862,1.7537 0.74735,4.55234 2.65373,4.00159 0.38806,-0.11211 3.40431,-1.73155 6.70278,-3.59875 z M 59.73986,122.92361 c 4.5e-5,-11.64167 0.04453,-16.35309 0.09886,-10.46982 0.05433,5.88326 0.05429,15.40826 -8.3e-5,21.16666 -0.05437,5.75841 -0.09882,0.94483 -0.09877,-10.69684 z m 22.865889,10.23056 c 0.0026,-0.97014 0.07116,-1.32515 0.152247,-0.7889 0.08109,0.53624 0.07892,1.32999 -0.0048,1.76389 -0.08374,0.43389 -0.150081,-0.005 -0.147432,-0.97499 z"
         id="path2" /><path
         style="fill:#040302"
         d="M 36.058398,227.1377 C 21.299166,218.70834 15.433122,215.18276 15.156315,214.57523 14.890967,213.99286 14.771516,206.569 14.771516,190.66002 v -23.07068 l 0.79375,-0.8791 c 0.926344,-1.02596 12.471368,-7.62691 13.339421,-7.62691 1.14556,0 2.447384,1.3883 2.447384,2.60995 0,1.52474 -0.610536,2.02892 -6.440931,5.31893 l -4.853432,2.73873 0.09093,21.17265 0.09093,21.17265 18.407226,10.523 18.407225,10.523 18.458053,-10.54097 18.458052,-10.54097 0.09092,-21.11978 0.09092,-21.11977 -18.345216,-10.48399 C 65.716879,153.57057 57.28407,148.85278 57.067174,148.85278 c -0.216897,0 -3.596253,1.82562 -7.50968,4.05694 -3.913428,2.23132 -7.395311,4.05695 -7.737519,4.05695 -1.571981,0 -2.937081,-2.76796 -2.052693,-4.16216 0.159785,-0.25189 3.530791,-2.31564 7.491126,-4.58611 l 7.200609,-4.12812 0.182875,-22.75417 c 0.100581,-12.51479 0.219644,-22.782331 0.264583,-22.816755 0.04494,-0.03442 9.269046,-5.312862 20.498014,-11.729861 11.228969,-6.417 20.793656,-11.667104 21.254862,-11.666898 0.461205,2.05e-4 3.894489,1.731736 7.629529,3.847846 3.73503,2.11611 6.78909,3.743129 6.78678,3.615599 -0.002,-0.127531 -0.23877,-1.105 -0.52548,-2.172152 -1.96726,-7.322276 -1.072,-14.260855 2.34021,-18.137329 1.92655,-2.18867 3.89068,-3.273272 6.84256,-3.778481 2.11175,-0.361424 2.85269,-0.333307 5.2417,0.198912 4.89023,1.089438 10.12301,4.34626 14.39231,8.957619 l 1.90381,2.056335 2.27884,-2.077484 c 6.09703,-5.558288 12.28247,-8.290417 18.01756,-7.958418 6.52444,0.377694 10.70692,4.858504 11.16172,11.95786 0.16094,2.512117 0.11895,2.721424 -0.65453,3.263195 -1.0941,0.766336 -2.63076,0.734315 -3.43669,-0.07161 -0.39799,-0.397987 -0.74274,-1.435198 -0.88809,-2.671861 -0.59084,-5.027134 -2.88058,-7.328927 -7.26966,-7.307935 -10.36399,0.04957 -23.67316,15.160718 -24.6029,27.933979 -0.33648,4.622816 1.05873,7.888759 3.92649,9.191239 4.18932,1.90269 10.61286,-0.46875 16.6444,-6.144765 3.52254,-3.314905 5.98796,-6.561588 8.14423,-10.72502 0.88267,-1.704303 1.78443,-3.215364 2.00392,-3.357914 1.34323,-0.87238 4.10323,0.551931 4.10323,2.117487 0,0.963819 -2.90778,6.496694 -4.83574,9.20135 -0.91972,1.290245 -2.89603,3.621706 -4.3918,5.181024 l -2.71957,2.835118 3.42369,1.62446 c 5.14488,2.44113 9.65356,5.61538 13.66312,9.61925 5.50359,5.49578 8.61022,11.24418 9.68611,17.92285 l 0.44044,2.73403 h 3.45641 c 4.09079,0 5.15209,0.32069 5.50435,1.66321 0.37512,1.42968 0.17388,2.30724 -0.69945,3.05016 -0.67235,0.57195 -1.26407,0.64004 -4.59853,0.52916 l -3.82689,-0.12725 -0.80951,3.19389 c -0.93842,3.70251 -2.94332,7.88874 -5.24323,10.9479 -1.84679,2.45645 -6.22741,6.72449 -8.32997,8.1159 -0.78374,0.51866 -1.42498,1.07169 -1.42498,1.22896 0,0.15727 1.62611,1.20665 3.61357,2.33197 1.98746,1.12531 3.89246,2.32491 4.23333,2.66578 0.57881,0.57881 0.61977,2.17898 0.61977,24.21679 0,21.96574 -0.0427,23.64647 -0.61737,24.31218 -1.05914,1.2269 -19.80557,11.71024 -20.94039,11.71024 -0.56101,0 -1.33752,-0.3175 -1.72558,-0.70556 -0.88823,-0.88823 -0.93702,-2.87126 -0.0882,-3.58411 0.33955,-0.28516 4.5391,-2.7307 9.33233,-5.43454 l 8.71498,-4.91607 -0.0719,-21.3017 -0.0719,-21.3017 -4.23333,-2.42329 c -2.32834,-1.33282 -4.39209,-2.34944 -4.58611,-2.25916 -2.95778,1.37616 -8.87804,3.52584 -11.64167,4.22716 -6.34311,1.60966 -10.85298,2.05338 -18.87361,1.85698 -9.33685,-0.22864 -15.31628,-1.34718 -22.93903,-4.29109 -1.78053,-0.68764 -3.36437,-1.25026 -3.51964,-1.25026 -0.15526,0 -1.96619,0.9662 -4.02428,2.14711 l -3.74198,2.1471 0.09094,21.21655 0.09094,21.21654 18.34445,10.47513 18.34444,10.47513 1.94028,-1.10129 c 4.18288,-2.37418 4.45689,-2.47115 5.52996,-1.95684 1.20219,0.5762 1.79012,2.05116 1.32911,3.33438 -0.4516,1.25703 -7.68295,5.51171 -8.9761,5.28122 -0.48527,-0.0865 -9.51308,-5.09038 -20.06181,-11.11975 -10.54872,-6.02937 -19.239219,-10.9625 -19.312206,-10.9625 -0.07299,0 -8.822043,4.95025 -19.442349,11.00056 -10.620305,6.05031 -19.630275,11.06095 -20.022155,11.13476 -0.454747,0.0856 -8.134987,-4.10497 -21.229794,-11.58373 z m 106.526402,-61.58332 2.40079,-0.22672 2.81397,-3.73953 c 2.89214,-3.84339 6.07033,-9.7578 7.36954,-13.71421 3.83653,-11.68314 2.31835,-25.51308 -4.19112,-38.17948 -1.51819,-2.95415 -1.3769,-2.89595 -5.14952,-2.12139 -5.28596,1.08526 -10.4704,-0.87203 -12.95848,-4.89225 l -0.73822,-1.19281 -3.20582,0.23178 c -3.42136,0.24737 -9.63938,1.19535 -10.31831,1.5731 -0.27379,0.15234 0.17794,1.16422 1.36169,3.05019 5.59729,8.91769 8.39499,18.88901 7.91845,28.22222 -0.46209,9.05011 -3.45749,17.12351 -9.44603,25.45952 -1.13862,1.58496 -2.07022,2.95113 -2.07022,3.03594 0,0.25149 6.27557,1.66004 9.70139,2.17748 3.39807,0.51325 12.56598,0.68879 16.51189,0.31616 z m -43.391783,-1.837 2.400673,-1.34856 -3.106228,-2.24175 c -6.814451,-4.91798 -11.77874,-11.25006 -14.177829,-18.0842 -1.230592,-3.50552 -1.262883,-3.73167 -1.269168,-8.8887 -0.0072,-5.94125 0.513548,-8.29115 2.889409,-13.03759 5.116261,-10.22113 16.743556,-18.41634 31.059006,-21.891154 2.45881,-0.596832 2.97627,-0.93061 2.19313,-1.41462 -0.20048,-0.123903 -1.23227,-1.463668 -2.29287,-2.977255 l -1.92836,-2.751977 -8.88226,-5.069259 c -4.88524,-2.788093 -9.052514,-5.105132 -9.260604,-5.148976 -0.208089,-0.04384 -8.633344,4.639281 -18.722789,10.406944 L 59.750683,101.75694 v 21.15327 21.15326 l 18.344444,10.49819 c 10.089445,5.77401 18.42382,10.49956 18.520834,10.50124 0.09701,0.002 1.256689,-0.60381 2.577056,-1.34552 z m 58.521693,-1.82187 c 11.90257,-4.71812 19.94107,-12.70115 22.36257,-22.20824 0.92776,-3.64251 0.55883,-9.21877 -0.86403,-13.05949 -2.83139,-7.64279 -9.89721,-14.68994 -19.27368,-19.22273 -1.74625,-0.84418 -3.60824,-1.64329 -4.13776,-1.7758 l -0.96276,-0.24092 1.72168,3.65236 c 2.23232,4.73562 4.01436,10.10791 5.02335,15.14378 1.12469,5.61335 1.12613,14.37997 0.003,19.6195 -1.31103,6.11733 -3.84564,12.39895 -6.98641,17.31469 -0.65325,1.02241 -1.18772,1.93522 -1.18772,2.02847 0,0.364 0.84881,0.11702 4.30153,-1.25162 z m -42.24183,-6.86912 c 4.76894,-7.16063 6.79918,-13.08568 7.13198,-20.81389 0.39292,-9.12433 -2.1293,-17.49627 -7.89984,-26.2217 -2.25261,-3.40611 -1.92631,-3.35342 -6.761,-1.09173 -10.025116,4.68979 -17.115964,12.27492 -19.254415,20.59658 -0.691849,2.69229 -0.69572,8.24823 -0.0076,10.96426 2.105484,8.31086 9.125477,16.08041 19.151365,21.19623 l 2.97751,1.51931 1.39123,-1.66342 c 0.76517,-0.91488 2.23704,-2.93342 3.27081,-4.48564 z m -5.24019,-21.80317 c -0.34608,-0.25306 -0.77387,-1.2343 -0.95065,-2.18053 -0.41801,-2.23749 -1.13999,-3.29347 -2.69638,-3.94377 -2.50997,-1.04874 -5.02592,0.34726 -5.7529,3.19205 -0.57898,2.26565 -0.61345,2.32276 -1.63635,2.71167 -1.140262,0.43352 -2.301494,0.2037 -3.123357,-0.61817 -0.447748,-0.44774 -0.555169,-1.0286 -0.440285,-2.38072 0.6465,-7.60891 9.718042,-11.11264 15.693642,-6.06141 1.57394,1.33047 2.93346,4.26478 3.02773,6.5349 0.0655,1.57754 -0.0481,1.95813 -0.75573,2.53139 -0.96411,0.78105 -2.46057,0.87646 -3.36572,0.21459 z m 18.93667,-36.801876 c 1.59193,-0.218199 1.60559,-0.231629 1.41712,-1.393042 -0.24771,-1.526481 0.46201,-6.324947 1.37297,-9.282657 0.9145,-2.969237 2.66115,-6.653488 4.50393,-9.500243 l 1.44237,-2.228209 -0.68597,-0.946791 c -0.87684,-1.210236 -4.36358,-4.554149 -6.2619,-6.005392 -3.61187,-2.76124 -8.67449,-4.193141 -11.51305,-3.256332 -0.69458,0.229234 -1.82264,1.036371 -2.50678,1.793637 -4.93207,5.459206 -1.77803,18.331693 7.03783,28.723336 2.08315,2.455498 2.20619,2.505146 5.19348,2.095693 z m 21.59799,119.383016 c -1.4739,-0.83926 -2.03358,-2.55245 -1.24262,-3.80367 0.18375,-0.29066 2.84038,-1.96456 5.90363,-3.71978 l 5.56955,-3.1913 0.17638,-6.6282 c 0.16072,-6.03937 0.23723,-6.67261 0.86118,-7.12814 1.13775,-0.83063 2.8659,-0.62995 3.69933,0.42958 0.68675,0.87306 0.73116,1.37759 0.73116,8.30632 0,7.18332 -0.0208,7.39728 -0.79375,8.15811 -0.84197,0.82879 -12.29758,7.42943 -13.49375,7.775 -0.38805,0.11211 -1.02305,0.023 -1.41111,-0.19792 z m -79.797738,-0.45341 c -0.916572,-0.64199 -1.349183,-2.34719 -0.837872,-3.30258 0.205624,-0.38421 2.905191,-2.14603 5.999039,-3.91516 l 5.625177,-3.2166 0.109863,-6.50074 c 0.09476,-5.60691 0.194056,-6.58481 0.722185,-7.11219 0.916258,-0.91496 3.02763,-0.80302 3.842853,0.20374 0.599302,0.7401 0.65907,1.50209 0.648884,8.27263 -0.0084,5.59345 -0.126869,7.60972 -0.473906,8.06666 -0.625307,0.82334 -13.387607,8.03385 -14.219568,8.03385 -0.363296,0 -1.000791,-0.23833 -1.416655,-0.52961 z"
         id="path1" /></g></g></svg>
